Coordinates
version=1
nRows=10
nColumns=63
inDegrees=yes

Units are S.I. units (second, meters, Newtons, ...)
If the header above contains a line with 'inDegrees', this indicates whether rotational values are in degrees (yes) or radians (no).

endheader
time	pelvis_tilt	pelvis_list	pelvis_rotation	pelvis_tx	pelvis_ty	pelvis_tz	hip_flexion_r	hip_adduction_r	hip_rotation_r	knee_angle_r	knee_angle_r_beta	ankle_angle_r	subtalar_angle_r	mtp_angle_r	hip_flexion_l	hip_adduction_l	hip_rotation_l	knee_angle_l	knee_angle_l_beta	ankle_angle_l	subtalar_angle_l	mtp_angle_l	L5_S1_Flex_Ext	L5_S1_Lat_Bending	L5_S1_axial_rotation	L4_L5_Flex_Ext	L4_L5_Lat_Bending	L4_L5_axial_rotation	L3_L4_Flex_Ext	L3_L4_Lat_Bending	L3_L4_axial_rotation	L2_L3_Flex_Ext	L2_L3_Lat_Bending	L2_L3_axial_rotation	L1_L2_Flex_Ext	L1_L2_Lat_Bending	L1_L2_axial_rotation	L1_T12_Flex_Ext	L1_T12_Lat_Bending	L1_T12_axial_rotation	Abs_r3	Abs_r2	Abs_r1	Abs_t1	Abs_t2	neck_flexion	neck_bending	neck_rotation	arm_flex_r	arm_add_r	arm_rot_r	elbow_flex_r	pro_sup_r	wrist_flex_r	wrist_dev_r	arm_flex_l	arm_add_l	arm_rot_l	elbow_flex_l	pro_sup_l	wrist_flex_l	wrist_dev_l
2.733333	3.320377	-1.159739	94.582527	0.218666	1.030371	0.431674	3.691730	3.611452	-4.291401	7.266086	0.126817	23.988973	-9.916145	0.000000	1.231090	-2.636211	3.562339	2.742687	0.047869	24.311940	0.497036	0.000000	0.197413	0.485194	-0.755313	0.366616	0.645308	-0.802520	0.324330	1.179700	-0.802520	0.225623	1.179700	-0.660899	0.183318	0.989407	-0.613692	0.112802	0.751565	-0.566485	1.410101	5.488609	-4.200824	0.000000	0.000000	16.851468	3.672688	16.275934	24.655731	-12.054016	89.705983	48.740072	29.938378	-3.023690	30.749006	21.459202	-2.896664	71.950349	43.038961	89.045956	21.619394	31.222441
2.750000	3.284017	-1.061683	94.621341	0.218849	1.030387	0.431928	3.556610	3.601985	-4.076386	7.218154	0.125981	23.830112	-10.300081	0.000000	1.044129	-2.606285	4.067806	2.537501	0.044288	24.129666	-0.075395	0.000000	0.203702	0.480952	-0.797903	0.378294	0.639667	-0.847772	0.334661	1.169388	-0.847772	0.232811	1.169388	-0.698165	0.189157	0.980758	-0.648296	0.116395	0.744995	-0.598427	1.455020	5.440630	-4.437697	0.000000	0.000000	17.436972	3.930655	16.524848	25.172445	-11.797325	91.257283	48.623155	26.708962	-3.843802	30.802296	20.788851	-3.149877	69.982592	43.341379	88.983431	21.090831	31.208584
2.766667	3.245650	-0.974904	94.603355	0.219076	1.030331	0.432342	3.456662	3.588164	-3.822832	7.191545	0.125516	23.690937	-10.663827	0.000000	0.894782	-2.576566	4.472054	2.377521	0.041496	23.993941	-0.580568	0.000000	0.208353	0.476398	-0.830684	0.386933	0.633609	-0.882602	0.342304	1.158313	-0.882602	0.238127	1.158313	-0.726849	0.193477	0.971470	-0.674931	0.119053	0.737940	-0.623013	1.488248	5.389105	-4.620017	0.000000	0.000000	18.084313	4.083125	16.684079	25.769863	-11.551084	92.932915	48.563593	23.352373	-4.641131	30.807809	20.205426	-3.357089	68.298253	43.646909	88.901577	20.454962	31.204594
2.783333	3.210132	-0.895306	94.541512	0.219321	1.030235	0.432928	3.388253	3.561405	-3.735116	7.187669	0.125448	23.630702	-10.723593	0.000000	0.786267	-2.553895	4.704909	2.271841	0.039651	23.912259	-0.913309	0.000000	0.209765	0.472045	-0.854424	0.389555	0.627820	-0.907825	0.344623	1.147730	-0.907825	0.239741	1.147730	-0.747621	0.194788	0.962594	-0.694219	0.119860	0.731197	-0.640818	1.498331	5.339865	-4.752050	0.000000	0.000000	18.791405	4.122741	16.748157	26.444285	-11.321969	94.709746	48.546630	20.051940	-5.271245	30.738386	19.712241	-3.508075	66.898040	43.941960	88.791817	19.717984	31.200969
2.800000	3.178813	-0.833014	94.448998	0.219586	1.030098	0.433669	3.353472	3.541143	-3.563464	7.186937	0.125436	23.538830	-10.870360	0.000000	0.733285	-2.543032	4.711280	2.228223	0.038890	23.901327	-0.982042	0.000000	0.209584	0.467376	-0.866917	0.389219	0.621611	-0.921099	0.344326	1.136379	-0.921099	0.239534	1.136379	-0.758552	0.194620	0.953074	-0.704370	0.119756	0.723966	-0.650187	1.497038	5.287056	-4.821530	0.000000	0.000000	19.541669	4.032707	16.664656	27.142641	-11.143178	96.443796	48.608712	16.932809	-5.847237	30.594235	19.291832	-3.621835	65.714211	44.230100	88.656172	18.879895	31.203018
2.816667	3.148000	-0.790192	94.342737	0.219861	1.029937	0.434544	3.349411	3.520275	-3.386526	7.185539	0.125411	23.432989	-11.012646	0.000000	0.730272	-2.528424	4.739101	2.228332	0.038892	23.894778	-1.106783	0.000000	0.208494	0.461643	-0.868637	0.387194	0.613985	-0.922926	0.342535	1.122439	-0.922926	0.238288	1.122439	-0.760057	0.193607	0.941383	-0.705767	0.119133	0.715085	-0.651477	1.489251	5.222199	-4.831097	0.000000	0.000000	20.303067	3.818622	16.424526	27.834076	-11.013261	98.058001	48.705481	14.010583	-6.260033	30.410035	18.945290	-3.722097	64.745538	44.525253	88.421869	17.867586	31.226533
2.833333	3.118668	-0.769552	94.247902	0.220119	1.029748	0.435535	3.373768	3.497925	-3.232424	7.177606	0.125273	23.302357	-11.154115	0.000000	0.789666	-2.520457	4.567384	2.288656	0.039945	23.955027	-0.948925	0.000000	0.206736	0.455288	-0.865515	0.383929	0.605533	-0.919609	0.339646	1.106987	-0.919609	0.236278	1.106987	-0.757325	0.191975	0.928423	-0.703231	0.118129	0.705241	-0.649136	1.476694	5.150306	-4.813732	0.000000	0.000000	21.061172	3.511116	16.081514	28.505307	-10.941703	99.490755	48.867644	11.366092	-6.592354	30.191543	18.626125	-3.824013	63.823620	44.843357	88.135625	16.791082	31.292652
2.850000	3.092146	-0.771808	94.168289	0.220357	1.029529	0.436633	3.428326	3.475379	-3.106537	7.166513	0.125079	23.167064	-11.281863	0.000000	0.901300	-2.509735	4.445081	2.386519	0.041653	24.018296	-0.850878	0.000000	0.204410	0.448895	-0.858946	0.379610	0.597030	-0.912631	0.335825	1.091443	-0.912631	0.233620	1.091443	-0.751578	0.189815	0.915386	-0.697894	0.116800	0.695338	-0.644210	1.460080	5.077987	-4.777203	0.000000	0.000000	21.795223	3.131555	15.686826	29.165017	-10.919722	100.752359	49.061153	9.054795	-6.768853	29.958341	18.346465	-3.947418	62.981553	45.199128	87.704034	15.560075	31.408166
2.866667	3.072691	-0.797050	94.136387	0.220537	1.029280	0.437817	3.505645	3.457855	-3.025620	7.137401	0.124571	23.024025	-11.420094	0.000000	1.075831	-2.508076	4.162757	2.537407	0.044286	24.145597	-0.476118	0.000000	0.201606	0.443376	-0.857029	0.374403	0.589690	-0.910593	0.331219	1.078024	-0.910593	0.230416	1.078024	-0.749900	0.187212	0.904132	-0.696336	0.115198	0.686789	-0.642772	1.440054	5.015557	-4.766537	0.000000	0.000000	22.504977	2.732631	15.320037	29.803858	-10.942827	101.814880	49.306601	7.175576	-6.874990	29.699026	18.070410	-4.083828	62.096039	45.588028	87.221087	14.305984	31.571249
2.883333	3.064110	-0.850404	94.140227	0.220669	1.029003	0.439056	3.609928	3.452018	-2.928710	7.086671	0.123686	22.860440	-11.630739	0.000000	1.306217	-2.510292	3.938983	2.722645	0.047519	24.276568	-0.151550	0.000000	0.200197	0.439492	-0.857144	0.371786	0.584524	-0.910716	0.328904	1.068581	-0.910716	0.228805	1.068581	-0.750001	0.185903	0.896212	-0.696430	0.114393	0.680773	-0.642858	1.429988	4.971621	-4.767179	0.000000	0.000000	23.156287	2.358262	15.033018	30.400756	-11.003022	102.668236	49.582590	5.578460	-6.966192	29.450241	17.825107	-4.223776	61.248374	45.990518	86.755488	13.049577	31.743413
